# xmcd
# 
# Track frame offsets:
#     187
#     24640
#     45685
#     69152
#     90565
#     111520
#     135482
#     161857
#     191897
#     215732
# 
# Disc length: 3109
# 
# Revision: 0
# Processed by: cddbd v1.5.2PL0 Copyright (c) Steve Scherf et al.
# Submitted via: fre:ac v1.0.17
# 
DISCID=920c230a
DTITLE=柳ジョージ - Sycamore Dr.
DYEAR=1995
DGENRE=Blues
TTITLE0=孤独に火をつけて~Burnin`my heart,let me go
TTITLE1=Heart Breaker
TTITLE2=伝言(ことづて)
TTITLE3=やっぱり彼女はスゴかった
TTITLE4=I’M IN YOUR EYES
TTITLE5=Mother Tree
TTITLE6=End Of Dream
TTITLE7=The Night Will Never Stay Forever
TTITLE8=Abandon city
TTITLE9=EVERYDAY(I HAVE THE BLUES)
EXTD=
EXTT0=
EXTT1=
EXTT2=
EXTT3=
EXTT4=
EXTT5=
EXTT6=
EXTT7=
EXTT8=
EXTT9=
PLAYORDER=
